<svg xmlns="http://www.w3.org/2000/svg" viewBox="0 0 925.44 167.11"><title>Asset 46</title><g id="Layer_2" data-name="Layer 2"><g id="Layer_1-2" data-name="Layer 1"><path d="M171.14,88.33l-8.33,9.22V112H151.73V55.4h11.08V82.83L186.68,55.4h14.07L178.42,80.16,202.53,112H189Z"/><path d="M201.4,83.63C201.4,67,214,54.27,231.17,54.27S260.86,67,260.86,83.63s-12.62,29.53-29.69,29.53S201.4,100.38,201.4,83.63Zm48.3,0c0-10.59-7.36-19.09-18.53-19.09S212.64,73,212.64,83.63c0,10.85,7.28,19.26,18.53,19.26S249.7,94.48,249.7,83.63Z"/><path d="M317.73,55.4V112h-9.14L280.11,75.22V112H269V55.4h9.14l28.48,36.73V55.4Z"/><path d="M384.72,86.22c0,16-11.65,26.94-28.64,26.94-17.4,0-30.18-12.78-30.18-29.53s12.86-29.36,29.69-29.36c14,0,23.63,7.84,27.19,17.31L372.5,74.49c-2.83-5.82-8.09-9.79-16.83-9.79-11.08,0-18.52,8.66-18.52,18.85s7,19.26,19.74,19.26c9.54,0,15.37-5.66,16.34-12.7h-17.4V80.56h28.89Z"/><path d="M388.27,96l10.6-3.23c2.27,5.9,8,10.59,16.18,10.59,6.64,0,10.76-3.39,10.76-7.11,0-3-2-5-7.44-6.8l-14.48-4.53c-7.44-2.35-12.86-7.12-12.78-14.4-.08-8.82,8.49-16.26,20.3-16.26,12.22,0,21.28,6.71,24.35,14.56l-10.27,3c-2.35-4.61-7.61-7.76-14-7.76-5.58,0-9.14,2.83-9.14,6.15,0,2.5,1.7,4.2,5.42,5.33l14.08,4.53c8.66,2.67,15.21,6.32,15.21,15.54,0,9.71-9.06,17.55-22.65,17.55C400.57,113.16,391.43,104.83,388.27,96Z"/><path d="M500.65,86.22c0,16-11.65,26.94-28.64,26.94-17.4,0-30.18-12.78-30.18-29.53s12.86-29.36,29.69-29.36c14,0,23.63,7.84,27.18,17.31l-10.27,2.91c-2.83-5.82-8.09-9.79-16.83-9.79-11.08,0-18.52,8.66-18.52,18.85s7,19.26,19.74,19.26c9.54,0,15.37-5.66,16.34-12.7h-17.4V80.56h28.89Z"/><path d="M542.71,99.73H517.23L512.54,112H501.05L522.73,55.4h14.4L558.89,112H547.33ZM519.9,42.54c0-5.59,4.29-9.71,10-9.71a9.71,9.71,0,1,1-10,9.71ZM539,89.94,529.93,66l-9.06,23.94Zm-12.94-47.4a3.88,3.88,0,0,0,7.76,0,3.88,3.88,0,0,0-7.76,0Z"/><path d="M587.45,92.21H575.4V112h-11V55.4H592c12.3,0,19.42,9.47,19.42,18.45A18,18,0,0,1,599,91.08l14.08,21H600.31ZM575.4,82.5h15.85c5.75,0,9.39-4,9.39-8.65a8.66,8.66,0,0,0-9-8.5H575.4Z"/><path d="M672.31,83.72c0,16.34-10.43,28.31-27.1,28.31H620.62V55.4h24.59C661.71,55.4,672.31,67.05,672.31,83.72Zm-11.16-.25c0-10.76-6.47-18.12-16.18-18.12H631.62V102H645C654.68,102,661.15,94.39,661.15,83.47Z"/><path d="M748.19,96c0,9.71-7.2,16-19.25,16H700.38V55.4h27c11.09,0,18.61,6.15,18.69,15.13a12.83,12.83,0,0,1-7,11.81C744.63,84.85,748.19,89.62,748.19,96ZM711.22,65v14h16.34c4.62,0,7.69-3.23,7.61-7.12S732,64.87,727.32,65Zm26,30c0-4-3-7.28-8.25-7.28H711.22V102.4h17.64C734.12,102.4,737.19,99.09,737.19,95Z"/><path d="M803.2,55.4,781.77,91.24V112H770.52V91.24L749,55.4h12.54l14.64,25.16L790.75,55.4Z"/><path d="M860.81,86.22c0,16-11.65,26.94-28.64,26.94-17.4,0-30.18-12.78-30.18-29.53s12.86-29.36,29.69-29.36c14,0,23.62,7.84,27.18,17.31l-10.27,2.91c-2.83-5.82-8.09-9.79-16.83-9.79-11.08,0-18.52,8.66-18.52,18.85s7,19.26,19.74,19.26c9.54,0,15.37-5.66,16.34-12.7h-17.4V80.56h28.89Z"/><path d="M925.44,86.22c0,16-11.65,26.94-28.64,26.94-17.39,0-30.17-12.78-30.17-29.53s12.86-29.36,29.69-29.36c14,0,23.62,7.84,27.18,17.31l-10.27,2.91c-2.83-5.82-8.09-9.79-16.83-9.79-11.08,0-18.53,8.66-18.53,18.85s7,19.26,19.74,19.26c9.55,0,15.38-5.66,16.35-12.7h-17.4V80.56h28.88Z"/><polygon points="0 27.39 19.8 13.84 19.8 114.39 0 124.48 0 27.39"/><polygon points="52.37 70.02 32.57 56.47 32.57 157.02 52.37 167.11 52.37 70.02"/><polygon points="116.8 56.19 97 42.64 97 143.19 116.8 153.28 116.8 56.19"/><polygon points="64.78 13.55 84.58 0 84.58 100.55 64.78 110.64 64.78 13.55"/></g></g></svg>